<?xml version="1.0" encoding="utf-8"?>
<!-- Generator: Adobe Illustrator 22.0.1, SVG Export Plug-In . SVG Version: 6.00 Build 0)  -->
<svg version="1.1" id="Warstwa_1" xmlns="http://www.w3.org/2000/svg" xmlns:xlink="http://www.w3.org/1999/xlink" x="0px" y="0px"
	 viewBox="0 0 150 52" style="enable-background:new 0 0 150 52;" xml:space="preserve">
<style type="text/css">
	.st0{fill:#315ECB;}
</style>
<g>
	<path class="st0" d="M10,30.8c-0.6-0.3-1.2-0.5-1.8-0.5c-2.1,0-3.6,2-3.6,4.1c0,1.6,0.9,2.3,2.5,2.3c4.6,0,13.3-6.1,13.3-12.4
		c0-1.4-0.4-2.8-1.1-4.2l0.2-0.1c0.9,1.5,1.4,3.2,1.4,4.9c0,9.3-7.3,15.3-11.7,15.3c-2.7,0-4.9-1.8-4.9-5.5c0-2.5,1.8-4.7,4-4.7
		c0.6,0,1.1,0.1,1.7,0.5L10,30.8z M31.3,20.7c2.4-4.3,5.5-7.3,7.2-7.3c0.7,0,0.9,0.3,0.9,0.6c0,1.3-1.9,2.7-4.5,4.5
		c-1.2,3.5-1.9,8-1.9,11.2c0,3.8,1,6.6,4.1,6.6c1.9,0,3-1.5,3-2.9c0-1.2-1-2.2-2.2-2.2c-0.4,0-0.8,0.1-1.2,0.4l0-0.2
		c0.4-0.2,0.8-0.4,1.2-0.4c1.5,0,2.7,1.2,2.7,3.5c0,3.7-3.3,6.3-6.5,6.3c-3.1,0-6.1-2.4-6.1-8.5c0-3.9,1.2-7.8,2.9-11
		c-1.7,1.2-3.4,2.5-4.9,4c0.2,1.3,0.3,2.7,0.3,4.2c0,5.4-1.8,10.3-4.5,10.3c-1,0-1.9-1-1.9-3c0-4.5,2.4-8.2,5.5-11.2
		c-1.6-5.4-6.3-8.2-10.4-8.2c-2.9,0-5,1.4-5,4.2c0,2.9,1.7,4,3.3,4c1.8,0,3.6-1.5,3.8-3.7h0.2c-0.1,2.7-2.5,4-4.2,4
		c-1.8,0-3.5-1.4-3.5-4.2c0-5.3,3.3-8.3,7-8.3c4,0,8.1,3.6,9.2,11.6C27.8,23.4,29.6,22,31.3,20.7z M25.6,25.8c-3,3-5.3,6.6-5.3,11
		c0,1.8,0.7,2.8,1.6,2.8c2.4,0,4.2-4.7,4.2-9.9C26.1,28.2,25.9,26.9,25.6,25.8z M38.5,13.7c-1.3,0-2.5,1.9-3.4,4.5
		c2.4-1.7,4.1-3,4.1-4.1C39.2,13.8,39,13.7,38.5,13.7z"/>
	<path class="st0" d="M53.3,24.6c0.6,0.3,1.1,0.5,1.7,0.5c0.5,0,0.8-0.1,1.7-0.4l0.2-1h0.2L54,38.2c-1.6,7.6-4.7,10.2-8.4,10.2
		c-2.5,0-4.6-1.8-4.6-3.9c0-2.9,2.2-4.5,5-5.5c-2,0-3.1-0.9-3.1-2.7c0-1.8,2.4-8.9,2.4-10.6c0-0.7-0.3-0.9-0.8-0.9
		c-0.7,0-2.3,0.9-2.5,3.7h-0.2c0.2-2.9,2.1-4.3,3.9-4.3c1.5,0,2.8,0.8,2.8,2.7c0,2-1.9,7.1-1.9,9.7c0,1.3,0.6,1.6,1.3,1.6
		c0.8,0,2-0.6,2.9-1.5L53.3,24.6z M46.7,38.8c-2.7,1.1-5,2.4-5,4.6c0,1.1,1.1,2.2,2.6,2.2c2.4,0,4.9-2.1,6.5-8.8
		C49.7,37.9,48.4,38.5,46.7,38.8z"/>
	<path class="st0" d="M71.8,29.9c-0.7-0.2-1.4-0.3-1.8-0.3c-3,0-4.4,2.2-4.4,4.4c0,2.4,1.5,4.7,5.1,4.7c6.4,0,9.3-14,12.3-24.1
		c-3.8-1.5-7.8-2.6-11.9-2.6c-3.5,0-6,2.4-6,5.9c0,3.4,2.4,7.2,6.2,7.2c1.8,0,3.8-0.8,4.5-2.8l0.1,0.3c-0.7,2-2.7,2.7-4.7,2.7
		c-3.7,0-6.3-3.6-6.3-7.5c0-5.3,3.9-11.1,10-11.1c3.2,0,6.6,1.2,10,2.8c0.3-0.7,0.6-1.4,0.9-2l0.2-0.1c-0.4,0.7-0.7,1.5-0.9,2.2
		c9.1,4.6,17.9,12.9,22.3,12.9c4.2,0,6.2-2.2,6.2-4.8c0-3.1-3.4-6.7-9.9-6.7c-2.2,0-4.3,0.4-6.3,1l0-0.3c1.9-0.6,4.1-1,6.3-1
		c6.6,0,10.2,3.6,10.2,7c0,2.8-2.1,5.1-6.6,5.1c-8.1,0-15.7-4.9-23.8-8.1c-2.1,8.3-1.1,15.1-2.1,19.6c-0.9,3.9-5,6-8.8,6
		c-3.6,0-7-2-7-6.4c0-2.4,1.7-4.7,4.6-4.7c0.4,0,1.1,0.1,1.8,0.4V29.9z"/>
	<path class="st0" d="M96.2,29.4c0,4.2-3.1,9.6-7.3,9.6c-3.3,0-4.9-2.5-4.9-5.4c0-5.1,3.2-9.5,7.9-9.5c0.7,0,2.1,0.1,3,1.2l0,0.2
		c-0.9-1-2.1-1.2-2.6-1.2c-2.9,0-4.8,4.7-4.8,8.4c0,2.8,1,4.9,3.3,4.9c2.8,0,5.2-4.8,5.2-8.5V29c-0.2,1.1-0.9,2-2.1,2
		c-1,0-1.8-0.8-1.8-1.9c0-1.2,0.8-2.5,2.2-2.5C95.6,26.6,96.2,28,96.2,29.4z"/>
	<path class="st0" d="M109.5,29.4c0,4.2-3.1,9.6-7.3,9.6c-3.3,0-4.9-2.5-4.9-5.4c0-5.1,3.2-9.5,7.9-9.5c0.7,0,2.1,0.1,3,1.2l0,0.2
		c-0.9-1-2.1-1.2-2.6-1.2c-2.9,0-4.8,4.7-4.8,8.4c0,2.8,1,4.9,3.3,4.9c2.8,0,5.2-4.8,5.2-8.5V29c-0.2,1.1-0.9,2-2.1,2
		c-1,0-1.8-0.8-1.8-1.9c0-1.2,0.8-2.5,2.2-2.5C109,26.6,109.5,28,109.5,29.4z"/>
	<path class="st0" d="M115.4,9.4c-1.1,0.6-2.1,2-2.1,4.3c0,3.3,2.5,7.3,9.2,8.6c0.4-1.7,0.7-3.3,0.7-3.9c0-0.7-0.4-0.9-1-0.9
		c-0.5,0-1.4,0.5-1.8,1.1l-0.4,0c0.6-0.9,2.3-1.6,3.7-1.6c1.4,0,2.4,0.6,2.7,1.8c2.1-11.9,10-15.1,13.5-15.1c4.3,0,6.2,2,6.2,4.7
		c0,5.7-8.3,14.7-18.8,14.7c-0.4,0-0.8,0-1.2,0c-1.1,4.8-3.4,12.6-3.4,14.6c0,0.7,0.2,0.9,0.8,0.9c0.8,0,2.2-1.5,2.4-3.8h0.2
		c-0.3,2.7-1.8,4.3-3.9,4.3c-1.3,0-2.6-0.5-2.7-2.1c-1,1.2-2.3,2-4.1,2c-3.3,0-4.7-2.3-4.7-5.2c0-4.3,3-9.7,7.6-9.7
		c1.6,0,2.7,0.9,3.2,2.7c0.3-1.1,0.7-2.7,1-4.3c-6.8-1.3-9.4-5.5-9.4-8.9c0-2.1,1-4.8,3.5-4.8c1.1,0,1.9,0.9,1.9,2.1
		c0,1.2-0.8,2.4-2.1,2.4c-1,0-1.8-0.8-1.8-1.9C114.5,10.7,114.8,9.9,115.4,9.4z M121.3,27.2c-0.5-1.8-1.4-2.7-2.7-2.7
		c-2.2,0-4.2,5.1-4.2,9.1c0,2.5,0.8,4.4,2.7,4.4c0.8,0,1.5-0.4,2.2-1.3C119.2,35.6,120.5,30.9,121.3,27.2z M126,22.7
		c0.4,0,0.8,0,1.2,0c5,0,13-3.8,13-11.2c0-3.1-1.8-4.7-4.2-4.7c-3.7,0-8.2,4.2-9.5,12.8v0.1C126.5,20.3,126.3,21.4,126,22.7z"/>
	<path class="st0" d="M139,29.4c0,4.2-3.1,9.6-7.3,9.6c-3.3,0-4.9-2.5-4.9-5.4c0-5.1,3.2-9.5,7.9-9.5c0.7,0,2.1,0.1,3,1.2l0,0.2
		c-0.9-1-2.1-1.2-2.6-1.2c-2.9,0-4.8,4.7-4.8,8.4c0,2.8,1,4.9,3.3,4.9c2.8,0,5.2-4.8,5.2-8.5V29c-0.2,1.1-0.9,2-2.1,2
		c-1,0-1.8-0.8-1.8-1.9c0-1.2,0.8-2.5,2.2-2.5C138.4,26.6,139,28,139,29.4z"/>
</g>
</svg>
